<mxfile host="app.diagrams.net" agent="Mozilla/5.0 (Windows NT 10.0; Win64; x64) AppleWebKit/537.36 (KHTML, like Gecko) Chrome/136.0.0.0 Safari/537.36 Edg/136.0.0.0" version="26.2.14">
  <diagram name="第 1 页" id="MSIOZIHUtd_p7otdKDNx">
    <mxGraphModel dx="1500" dy="826" grid="1" gridSize="10" guides="1" tooltips="1" connect="1" arrows="1" fold="1" page="1" pageScale="1" pageWidth="827" pageHeight="1169" math="0" shadow="0">
      <root>
        <mxCell id="0" />
        <mxCell id="1" parent="0" />
        <mxCell id="8qcRSLH0dFq3Wt3aRjGg-3" value="" style="edgeStyle=orthogonalEdgeStyle;rounded=0;orthogonalLoop=1;jettySize=auto;html=1;" edge="1" parent="1" source="8qcRSLH0dFq3Wt3aRjGg-1" target="8qcRSLH0dFq3Wt3aRjGg-2">
          <mxGeometry relative="1" as="geometry" />
        </mxCell>
        <mxCell id="8qcRSLH0dFq3Wt3aRjGg-1" value="开始" style="strokeWidth=2;html=1;shape=mxgraph.flowchart.terminator;whiteSpace=wrap;" vertex="1" parent="1">
          <mxGeometry x="160" y="240" width="90" height="50" as="geometry" />
        </mxCell>
        <mxCell id="8qcRSLH0dFq3Wt3aRjGg-5" value="" style="edgeStyle=orthogonalEdgeStyle;rounded=0;orthogonalLoop=1;jettySize=auto;html=1;" edge="1" parent="1" source="8qcRSLH0dFq3Wt3aRjGg-2" target="8qcRSLH0dFq3Wt3aRjGg-4">
          <mxGeometry relative="1" as="geometry" />
        </mxCell>
        <mxCell id="8qcRSLH0dFq3Wt3aRjGg-9" value="" style="edgeStyle=orthogonalEdgeStyle;rounded=0;orthogonalLoop=1;jettySize=auto;html=1;" edge="1" parent="1" source="8qcRSLH0dFq3Wt3aRjGg-2" target="8qcRSLH0dFq3Wt3aRjGg-8">
          <mxGeometry relative="1" as="geometry" />
        </mxCell>
        <mxCell id="8qcRSLH0dFq3Wt3aRjGg-2" value="&lt;p class=&quot;MsoNormal&quot;&gt;&lt;font style=&quot;&quot;&gt;是否查询菜单&lt;/font&gt;&lt;/p&gt;" style="rhombus;whiteSpace=wrap;html=1;strokeWidth=2;" vertex="1" parent="1">
          <mxGeometry x="147.5" y="330" width="115" height="80" as="geometry" />
        </mxCell>
        <mxCell id="8qcRSLH0dFq3Wt3aRjGg-11" value="" style="edgeStyle=orthogonalEdgeStyle;rounded=0;orthogonalLoop=1;jettySize=auto;html=1;" edge="1" parent="1" source="8qcRSLH0dFq3Wt3aRjGg-4">
          <mxGeometry relative="1" as="geometry">
            <mxPoint x="510" y="370" as="targetPoint" />
          </mxGeometry>
        </mxCell>
        <mxCell id="8qcRSLH0dFq3Wt3aRjGg-4" value="后端查询菜单信息" style="whiteSpace=wrap;html=1;strokeWidth=2;" vertex="1" parent="1">
          <mxGeometry x="320" y="340" width="120" height="60" as="geometry" />
        </mxCell>
        <mxCell id="8qcRSLH0dFq3Wt3aRjGg-15" value="" style="edgeStyle=orthogonalEdgeStyle;rounded=0;orthogonalLoop=1;jettySize=auto;html=1;" edge="1" parent="1" source="8qcRSLH0dFq3Wt3aRjGg-8" target="8qcRSLH0dFq3Wt3aRjGg-14">
          <mxGeometry relative="1" as="geometry" />
        </mxCell>
        <mxCell id="8qcRSLH0dFq3Wt3aRjGg-23" value="" style="edgeStyle=orthogonalEdgeStyle;rounded=0;orthogonalLoop=1;jettySize=auto;html=1;" edge="1" parent="1" source="8qcRSLH0dFq3Wt3aRjGg-8" target="8qcRSLH0dFq3Wt3aRjGg-22">
          <mxGeometry relative="1" as="geometry" />
        </mxCell>
        <mxCell id="8qcRSLH0dFq3Wt3aRjGg-8" value="&lt;p class=&quot;MsoNormal&quot;&gt;&lt;font face=&quot;Helvetica&quot; style=&quot;&quot;&gt;是否查询用户信息&lt;/font&gt;&lt;/p&gt;" style="rhombus;whiteSpace=wrap;html=1;strokeWidth=2;" vertex="1" parent="1">
          <mxGeometry x="147.5" y="450" width="115" height="80" as="geometry" />
        </mxCell>
        <mxCell id="8qcRSLH0dFq3Wt3aRjGg-12" value="结束" style="strokeWidth=2;html=1;shape=mxgraph.flowchart.terminator;whiteSpace=wrap;" vertex="1" parent="1">
          <mxGeometry x="510" y="340" width="100" height="60" as="geometry" />
        </mxCell>
        <mxCell id="8qcRSLH0dFq3Wt3aRjGg-17" value="" style="edgeStyle=orthogonalEdgeStyle;rounded=0;orthogonalLoop=1;jettySize=auto;html=1;" edge="1" parent="1" source="8qcRSLH0dFq3Wt3aRjGg-14" target="8qcRSLH0dFq3Wt3aRjGg-16">
          <mxGeometry relative="1" as="geometry" />
        </mxCell>
        <mxCell id="8qcRSLH0dFq3Wt3aRjGg-21" value="" style="edgeStyle=orthogonalEdgeStyle;rounded=0;orthogonalLoop=1;jettySize=auto;html=1;" edge="1" parent="1" source="8qcRSLH0dFq3Wt3aRjGg-14">
          <mxGeometry relative="1" as="geometry">
            <mxPoint x="560" y="610" as="targetPoint" />
          </mxGeometry>
        </mxCell>
        <mxCell id="8qcRSLH0dFq3Wt3aRjGg-14" value="&lt;p class=&quot;MsoNormal&quot;&gt;&lt;font face=&quot;Helvetica&quot; style=&quot;&quot;&gt;是否修改用户信息&lt;/font&gt;&lt;/p&gt;" style="rhombus;whiteSpace=wrap;html=1;strokeWidth=2;" vertex="1" parent="1">
          <mxGeometry x="146.25" y="570" width="117.5" height="80" as="geometry" />
        </mxCell>
        <mxCell id="8qcRSLH0dFq3Wt3aRjGg-19" value="" style="edgeStyle=orthogonalEdgeStyle;rounded=0;orthogonalLoop=1;jettySize=auto;html=1;" edge="1" parent="1" source="8qcRSLH0dFq3Wt3aRjGg-16">
          <mxGeometry relative="1" as="geometry">
            <mxPoint x="560" y="400" as="targetPoint" />
            <Array as="points">
              <mxPoint x="561" y="710" />
            </Array>
          </mxGeometry>
        </mxCell>
        <mxCell id="8qcRSLH0dFq3Wt3aRjGg-16" value="&lt;div style=&quot;line-height: 40%;&quot;&gt;&lt;p class=&quot;MsoNormal&quot;&gt;&lt;font face=&quot;Helvetica&quot;&gt;调用后端接口&lt;/font&gt;&lt;/p&gt;&lt;p class=&quot;MsoNormal&quot;&gt;&lt;font face=&quot;Helvetica&quot;&gt;修改用户信息&lt;/font&gt;&lt;/p&gt;&lt;/div&gt;" style="whiteSpace=wrap;html=1;strokeWidth=2;" vertex="1" parent="1">
          <mxGeometry x="145" y="680" width="120" height="60" as="geometry" />
        </mxCell>
        <mxCell id="8qcRSLH0dFq3Wt3aRjGg-25" value="" style="edgeStyle=orthogonalEdgeStyle;rounded=0;orthogonalLoop=1;jettySize=auto;html=1;" edge="1" parent="1" source="8qcRSLH0dFq3Wt3aRjGg-22">
          <mxGeometry relative="1" as="geometry">
            <mxPoint x="560" y="490" as="targetPoint" />
          </mxGeometry>
        </mxCell>
        <mxCell id="8qcRSLH0dFq3Wt3aRjGg-22" value="&lt;div style=&quot;line-height: 40%;&quot;&gt;&lt;p class=&quot;MsoNormal&quot;&gt;&lt;font face=&quot;Helvetica&quot;&gt;调用后端接口&lt;/font&gt;&lt;/p&gt;&lt;p class=&quot;MsoNormal&quot;&gt;查询用户信息&lt;/p&gt;&lt;/div&gt;" style="whiteSpace=wrap;html=1;strokeWidth=2;" vertex="1" parent="1">
          <mxGeometry x="320" y="460" width="120" height="60" as="geometry" />
        </mxCell>
        <mxCell id="8qcRSLH0dFq3Wt3aRjGg-26" value="N" style="text;html=1;align=center;verticalAlign=middle;whiteSpace=wrap;rounded=0;" vertex="1" parent="1">
          <mxGeometry x="163" y="410" width="60" height="30" as="geometry" />
        </mxCell>
        <mxCell id="8qcRSLH0dFq3Wt3aRjGg-27" value="Y" style="text;html=1;align=center;verticalAlign=middle;whiteSpace=wrap;rounded=0;" vertex="1" parent="1">
          <mxGeometry x="256" y="345" width="60" height="30" as="geometry" />
        </mxCell>
        <mxCell id="8qcRSLH0dFq3Wt3aRjGg-29" value="N" style="text;html=1;align=center;verticalAlign=middle;whiteSpace=wrap;rounded=0;" vertex="1" parent="1">
          <mxGeometry x="161" y="530" width="60" height="30" as="geometry" />
        </mxCell>
        <mxCell id="8qcRSLH0dFq3Wt3aRjGg-30" value="Y" style="text;html=1;align=center;verticalAlign=middle;whiteSpace=wrap;rounded=0;" vertex="1" parent="1">
          <mxGeometry x="252" y="465" width="60" height="30" as="geometry" />
        </mxCell>
        <mxCell id="8qcRSLH0dFq3Wt3aRjGg-31" value="Y" style="text;html=1;align=center;verticalAlign=middle;whiteSpace=wrap;rounded=0;" vertex="1" parent="1">
          <mxGeometry x="160" y="649" width="60" height="30" as="geometry" />
        </mxCell>
        <mxCell id="8qcRSLH0dFq3Wt3aRjGg-32" value="N" style="text;html=1;align=center;verticalAlign=middle;whiteSpace=wrap;rounded=0;" vertex="1" parent="1">
          <mxGeometry x="252" y="585" width="60" height="30" as="geometry" />
        </mxCell>
      </root>
    </mxGraphModel>
  </diagram>
</mxfile>
